<svg xmlns="http://www.w3.org/2000/svg" width="186" height="53.661" viewBox="0 0 186 53.661">
  <g id="Group_100" data-name="Group 100" transform="translate(-138 -45)">
    <path id="Icon_map-food" data-name="Icon map-food" d="M55.1,15.576,50.629,50.6H35.539L31.089,15.4H49.511L53.153,2.825l2.064.622-3.493,12.1,3.373.026ZM28.956,35.837S29.52,31.3,21.7,31.3H9.234c-7.813,0-7.261,4.541-7.261,4.541ZM1.973,46.055S1.421,50.6,9.234,50.6H21.7c7.825,0,7.261-4.541,7.261-4.541H1.973Zm25.812-2.271A2.611,2.611,0,0,0,30.1,40.947a2.608,2.608,0,0,0-2.315-2.84H3.036A2.613,2.613,0,0,0,.72,40.947a2.616,2.616,0,0,0,2.316,2.837Z" transform="translate(137.28 42.175)" fill="#fff"/>
    <text id="Resepku_" data-name="Resepku!" transform="translate(261 91.661)" fill="#fff" font-size="27" font-family="Montserrat-Regular, Montserrat"><tspan x="-62.964" y="0">Resepku!</tspan></text>
  </g>
</svg>
